# xmcd
#
# Track frame offsets: 
#        150
#        10013
#        20900
#        29300
#        37067
#        48093
#        57071
#        68809
#        78992
#        91320
#        99463
#        112187
#        123998
#        134017
#        144128
#
# Disc length: 2083 seconds
#
# Revision: 1
# Processed by: cddbd v1.5.2PL0 Copyright (c) Steve Scherf et al.
# Submitted via: ExactAudioCopy v0.99pb5
#
DISCID=c508210f
DTITLE=Johnny Cash - Storyteller
DYEAR=2009
DGENRE=Country
TTITLE0=The Rock Island Line
TTITLE1=I Heard That Lonesome Whistle
TTITLE2=Country Boy
TTITLE3=If The Good Lord's Willing
TTITLE4=Cry! Cry! Cry!
TTITLE5=Remember Me
TTITLE6=So Doggone Lonesome
TTITLE7=I Was There When It Happened
TTITLE8=I Walk The Line
TTITLE9=The Wreck Of The Old '97
TTITLE10=Folsom Prison Blues
TTITLE11=Doin' My Time
TTITLE12=Hey Porter!
TTITLE13=Get Rhythm
TTITLE14=Give My Love To Rose
EXTD=3 CD Box
EXTT0=CD 1 
EXTT1=CD 1
EXTT2=CD 1
EXTT3=CD 1
EXTT4=CD 1
EXTT5=CD 1
EXTT6=CD 1
EXTT7=CD 1
EXTT8=CD 1
EXTT9=CD 1
EXTT10=CD 1
EXTT11=CD 1
EXTT12=CD 1
EXTT13=CD 1
EXTT14=CD 1
PLAYORDER=
